<?xml version="1.0" encoding="UTF-8"?>
<svg id="Layer_1" data-name="Layer 1" xmlns="http://www.w3.org/2000/svg" xmlns:xlink="http://www.w3.org/1999/xlink" viewBox="0 0 400.94 394.61">
  <defs>
    <linearGradient id="linear-gradient" x1="97.05" y1="97.89" x2="150.49" y2="97.89" gradientUnits="userSpaceOnUse">
      <stop offset="0" stop-color="#5fa19d"/>
      <stop offset="1" stop-color="#68b0ab"/>
    </linearGradient>
    <linearGradient id="linear-gradient-2" x1="249.15" y1="97.89" x2="302.6" y2="97.89" gradientUnits="userSpaceOnUse">
      <stop offset="0" stop-color="#ffb6a0"/>
      <stop offset="1" stop-color="#e2a492"/>
    </linearGradient>
    <linearGradient id="linear-gradient-3" x1="56.39" y1="254.55" x2="155.96" y2="254.55" xlink:href="#linear-gradient"/>
    <linearGradient id="linear-gradient-4" x1="97.63" y1="268.9" x2="196.81" y2="268.9" xlink:href="#linear-gradient"/>
    <linearGradient id="linear-gradient-5" x1="236.98" y1="254.55" x2="336.4" y2="254.55" xlink:href="#linear-gradient-2"/>
    <linearGradient id="linear-gradient-6" x1="240.32" y1="425.51" x2="254.62" y2="252.92" xlink:href="#linear-gradient-2"/>
    <linearGradient id="linear-gradient-7" x1="71.67" y1="347.4" x2="87.85" y2="347.4" xlink:href="#linear-gradient-2"/>
    <linearGradient id="linear-gradient-8" x1="384.22" y1="169.23" x2="400.94" y2="169.23" xlink:href="#linear-gradient-2"/>
    <linearGradient id="linear-gradient-9" x1="323.49" y1="55.38" x2="338.05" y2="55.38" xlink:href="#linear-gradient-2"/>
    <linearGradient id="linear-gradient-10" x1="193.43" y1="268.53" x2="256.5" y2="268.53" xlink:href="#linear-gradient-2"/>
    <linearGradient id="linear-gradient-11" x1="144.47" y1="268.53" x2="181.92" y2="268.53" xlink:href="#linear-gradient-2"/>
    <linearGradient id="linear-gradient-12" x1="232.3" y1="386.44" x2="248.64" y2="386.44" xlink:href="#linear-gradient"/>
    <linearGradient id="linear-gradient-13" x1="283.49" y1="367.35" x2="298.36" y2="367.35" xlink:href="#linear-gradient-2"/>
    <linearGradient id="linear-gradient-14" x1="158.35" y1="7.87" x2="174.09" y2="7.87" xlink:href="#linear-gradient"/>
    <linearGradient id="linear-gradient-15" x1="66.79" y1="51.79" x2="81.56" y2="51.79" xlink:href="#linear-gradient-2"/>
    <linearGradient id="linear-gradient-16" x1="0" y1="223.34" x2="17.28" y2="223.34" xlink:href="#linear-gradient"/>
  </defs>
  <circle cx="123.77" cy="97.89" r="26.72" style="fill: url(#linear-gradient);"/>
  <circle cx="275.87" cy="97.89" r="26.72" style="fill: url(#linear-gradient-2);"/>
  <path d="M196.81,373.34c-63.15-26.94-126.64-89.07-134.3-160.9-6.13-87.83,80.85-93.1,128-51.57-2.53,3.7-5.06,7.51-7.58,11.4-39.61-24.17-90.17,10.17-84.93,69.54,3.8,61.36,42.78,101.57,98.81,131.53Z" style="fill: url(#linear-gradient-3);"/>
  <path d="M196.81,373.34c-56.03-29.96-95.01-70.17-98.81-131.53-5.24-59.37,45.32-93.71,84.93-69.54-2.76,4.25-5.5,8.6-8.25,13.03-21.99-12.27-43.03-5.87-53.66,18.03-4.04,9.07-5.62,19.01-5.36,28.94,1.38,53.6,36.39,105.68,81.15,141.07Z" style="fill: url(#linear-gradient-4);"/>
  <path d="M202.06,373.34c63.15-26.94,126.64-89.07,134.3-160.9,6.13-87.83-80.85-93.1-128-51.57,2.53,3.7,5.06,7.51,7.58,11.4,39.61-24.17,90.17,10.17,84.93,69.54-3.8,61.36-42.78,101.57-98.81,131.53Z" style="fill: url(#linear-gradient-5);"/>
  <path d="M202.06,373.34c56.03-29.96,95.01-70.17,98.81-131.53,5.24-59.37-45.32-93.71-84.93-69.54,2.76,4.25,5.5,8.6,8.25,13.03,21.99-12.27,43.03-5.87,53.66,18.03,4.04,9.07,5.62,19.01,5.36,28.94-1.38,53.6-36.39,105.68-81.15,141.07Z" style="fill: url(#linear-gradient-6);"/>
  <path d="M206.26,180.2l-21.37,12.48c4.12-7.74,8.84-15.08,14.3-21.94,2.43,2.65,4.78,5.86,7.07,9.46Z" style="fill: #ffb6a0;"/>
  <path d="M211.87,189.89l-37.11,25.53c2.92-7.88,6.26-15.48,10.12-22.73h.01s21.37-12.49,21.37-12.49c1.91,2.99,3.77,6.26,5.61,9.69Z" style="fill: #e2a492;"/>
  <polyline points="211.88 189.89 224.47 215.93 198.59 199.03" style="fill: #68b0ab;"/>
  <circle cx="79.76" cy="347.4" r="8.09" style="fill: url(#linear-gradient-7);"/>
  <circle cx="392.58" cy="169.23" r="8.36" style="fill: url(#linear-gradient-8);"/>
  <path d="M73.38,342.88c-31.09-26.52-53.95-63.93-63.07-111.15" style="fill: none; stroke: #ffb6a0; stroke-miterlimit: 10;"/>
  <path d="M85.68,352.49c40.79,29.21,93.24,41.81,147.02,36.03" style="fill: none; stroke: #ffb6a0; stroke-miterlimit: 10;"/>
  <path d="M173.39,5.53c63.2-6.66,113.27,11.32,154.06,43.79" style="fill: none; stroke: #ffb6a0; stroke-miterlimit: 10;"/>
  <path d="M79,46.4c23.7-20.22,50.3-33.45,79.53-38.79" style="fill: none; stroke: #ffb6a0; stroke-miterlimit: 10;"/>
  <path d="M8.48,214.8c-5.66-61.59,15.25-114.5,59.87-158.74l-.1.12" style="fill: none; stroke: #ffb6a0; stroke-miterlimit: 10;"/>
  <path d="M336.21,59.86c30.45,31.16,46.45,66.29,54.57,101.44" style="fill: none; stroke: #ffb6a0; stroke-miterlimit: 10;"/>
  <path d="M394.22,177.03c4.43,73.01-29.25,130.58-75.89,169.31" style="fill: none; stroke: #ffb6a0; stroke-miterlimit: 10;"/>
  <path d="M232.46,386.19c-86.81,10.6-185.78-71.5-206.52-163.91-13.41-62.07-2.86-118.25,42.99-165.46" style="fill: none; stroke: #68b0ab; stroke-miterlimit: 10;"/>
  <path d="M79.36,46.68c21.69-20.28,48.69-32.81,79.12-38.58" style="fill: none; stroke: #68b0ab; stroke-miterlimit: 10;"/>
  <path d="M173.55,5.98c92.57-6.81,183.32,66.21,200.33,160.51,16.98,101.11-25.1,159.98-76.75,196.89" style="fill: none; stroke: #68b0ab; stroke-miterlimit: 10;"/>
  <path d="M284.44,370.59c-12.86,6.33-25.37,11.17-36.4,13.21" style="fill: none; stroke: #68b0ab; stroke-miterlimit: 10;"/>
  <circle cx="330.77" cy="55.38" r="7.28" style="fill: url(#linear-gradient-9);"/>
  <path d="M223.47,310.71c-5.78,0-17.78,0-30.04-11.33l9.45-10.91c17.6,15.55,30.66,8.53,33.72,5.81s4.46-5.7,4.46-9.58-1.45-6.81-4.34-9.03c-2.89-2.22-7.51-3.33-13.84-3.33h-10.19v-10.58l19.62-22.34h-35.81v-13.07h57v10.34l-21.19,24.72s11.43,1.09,16.54,5.64c5.11,4.56,7.66,10.4,7.66,17.53,0,4.68-1.19,9.01-3.56,13.01-2.38,4-6,7.19-10.87,9.57-4.87,2.38-11.07,3.56-18.6,3.56Z" style="fill: url(#linear-gradient-10);"/>
  <polygon points="144.47 235.04 166.34 226.35 181.92 226.35 181.92 310.71 166.17 310.71 166.17 239.42 149.9 246.27 144.47 235.04" style="fill: url(#linear-gradient-11);"/>
  <circle cx="240.47" cy="386.44" r="8.17" style="fill: url(#linear-gradient-12);"/>
  <circle cx="290.93" cy="367.35" r="7.44" style="fill: url(#linear-gradient-13);"/>
  <circle cx="166.22" cy="7.87" r="7.87" style="fill: url(#linear-gradient-14);"/>
  <circle cx="74.17" cy="51.79" r="7.38" style="fill: url(#linear-gradient-15);"/>
  <circle cx="8.64" cy="223.34" r="8.64" style="fill: url(#linear-gradient-16);"/>
</svg>
